<svg width="17" height="16" viewBox="0 0 17 16" fill="none" xmlns="http://www.w3.org/2000/svg">
<path d="M6.04704 0.841766C7.18433 -0.280651 9.02785 -0.280537 10.1652 0.841766L15.3586 5.96677C16.4959 7.08925 16.4959 8.90971 15.3586 10.0322L10.1652 15.1582C9.02787 16.2807 7.18341 16.2806 6.04607 15.1582L0.852707 10.0322C-0.28418 8.90975 -0.284296 7.09012 0.852707 5.96774L6.04704 0.841766ZM7.95232 3.79099C7.33846 3.79099 6.77541 3.90471 6.26384 4.13278C5.75237 4.36087 5.30889 4.67726 4.93376 5.08102C4.56234 5.485 4.27417 5.95319 4.0695 6.48434C3.86486 7.01923 3.76189 7.59145 3.76189 8.20114H4.55779C4.55779 7.69993 4.63994 7.23057 4.8029 6.79294C4.96587 6.3553 5.19685 5.9696 5.49626 5.63669C5.79554 5.30398 6.15176 5.04437 6.56462 4.85739C6.98153 4.67036 7.44445 4.57614 7.95232 4.57614C8.46011 4.57617 8.9357 4.67039 9.37907 4.85739C9.82237 5.04812 10.2107 5.30977 10.5441 5.64255C10.8814 5.97546 11.1456 6.36115 11.3351 6.7988C11.5245 7.2363 11.6193 7.70384 11.6193 8.20114C11.6193 8.69861 11.5246 9.16472 11.3351 9.5986C11.1456 10.0362 10.8814 10.421 10.5441 10.7539C10.2106 11.0867 9.82245 11.3471 9.37907 11.5341C8.93572 11.7249 8.46007 11.8203 7.95232 11.8203C7.67943 11.8203 7.40063 11.786 7.11638 11.7187C6.83596 11.6514 6.59871 11.5474 6.40544 11.4052C6.21608 11.2632 6.12139 11.0797 6.12126 10.8554C6.12126 10.6796 6.1826 10.52 6.30388 10.3779C6.42506 10.236 6.57631 10.1651 6.75798 10.165H9.99919L10.0959 9.53122H9.44743C9.67863 9.3816 9.86275 9.17375 9.99919 8.90817C10.1394 8.64266 10.2091 8.3489 10.2092 8.02731C10.2092 7.61975 10.107 7.24553 9.90251 6.90524C9.70164 6.56859 9.43014 6.29864 9.08904 6.09665C8.74805 5.89852 8.36905 5.79981 7.95232 5.79977C7.53557 5.79977 7.15453 5.89856 6.80974 6.09665C6.46863 6.29864 6.19507 6.56859 5.9904 6.90524C5.78967 7.24554 5.68962 7.61974 5.68962 8.02731C5.68965 8.35625 5.75951 8.64597 5.89958 8.89645C6.04359 9.14704 6.23506 9.34954 6.4738 9.5029C6.25799 9.52162 6.06304 9.60006 5.88884 9.73825C5.7145 9.87665 5.57613 10.0491 5.4738 10.2549C5.37527 10.4643 5.32536 10.6776 5.32536 10.8945C5.32541 11.1675 5.40134 11.4087 5.5529 11.6181C5.70828 11.8313 5.91326 12.0103 6.16716 12.1562C6.42484 12.3021 6.70898 12.4125 7.0197 12.4873C7.33048 12.5658 7.64153 12.6054 7.95232 12.6054C8.56623 12.6054 9.1427 12.4918 9.68083 12.2636C10.2189 12.0392 10.6925 11.7242 11.1017 11.3203C11.5109 10.9201 11.8315 10.4527 12.0627 9.91794C12.2976 9.38684 12.4152 8.81452 12.4152 8.20114C12.4152 7.59155 12.2996 7.01915 12.0685 6.48434C11.8373 5.95319 11.5169 5.485 11.1076 5.08102C10.6983 4.67714 10.2227 4.36093 9.68083 4.13278C9.1427 3.90463 8.56623 3.79101 7.95232 3.79099ZM7.95232 6.47849C8.2515 6.47852 8.5224 6.54941 8.76482 6.69138C9.01114 6.83724 9.20674 7.03014 9.35075 7.2695C9.49478 7.51264 9.56657 7.78259 9.56657 8.07809C9.5665 8.3921 9.49263 8.656 9.34489 8.86911C9.20091 9.08216 9.01138 9.24098 8.77654 9.34567C8.54165 9.4541 8.28964 9.50871 8.02068 9.50876C7.74022 9.50876 7.4687 9.45088 7.2072 9.33493C6.9495 9.21899 6.73931 9.05397 6.57634 8.84079C6.41345 8.62769 6.33228 8.3734 6.3322 8.07809C6.3322 7.79015 6.40407 7.5243 6.54802 7.28122C6.69204 7.03808 6.88553 6.84312 7.1281 6.69724C7.37437 6.55147 7.64924 6.47849 7.95232 6.47849Z" fill="#111314"/>
</svg>
