<svg width="20" height="20" viewBox="0 0 20 20" fill="none" xmlns="http://www.w3.org/2000/svg">
<path d="M17.9422 8.56705L14.1922 12.317C14.0749 12.4343 13.9159 12.5002 13.75 12.5002C13.5841 12.5002 13.4251 12.4343 13.3078 12.317C13.1905 12.1998 13.1247 12.0407 13.1247 11.8749C13.1247 11.709 13.1905 11.5499 13.3078 11.4327L15.9914 8.74986H10C8.17727 8.75193 6.42979 9.47692 5.14092 10.7658C3.85206 12.0546 3.12707 13.8021 3.125 15.6249C3.125 15.7906 3.05915 15.9496 2.94194 16.0668C2.82473 16.184 2.66576 16.2499 2.5 16.2499C2.33424 16.2499 2.17527 16.184 2.05806 16.0668C1.94085 15.9496 1.875 15.7906 1.875 15.6249C1.87727 13.4707 2.73403 11.4054 4.25727 9.88213C5.78051 8.35889 7.84581 7.50213 10 7.49986H15.9914L13.3078 4.81705C13.2497 4.75898 13.2037 4.69004 13.1723 4.61417C13.1408 4.5383 13.1247 4.45698 13.1247 4.37486C13.1247 4.29274 13.1408 4.21142 13.1723 4.13555C13.2037 4.05968 13.2497 3.99074 13.3078 3.93267C13.4251 3.8154 13.5841 3.74951 13.75 3.74951C13.8321 3.74951 13.9134 3.76569 13.9893 3.79711C14.0652 3.82854 14.1341 3.8746 14.1922 3.93267L17.9422 7.68267C18.0003 7.74072 18.0464 7.80965 18.0779 7.88552C18.1093 7.9614 18.1255 8.04272 18.1255 8.12486C18.1255 8.20699 18.1093 8.28832 18.0779 8.3642C18.0464 8.44007 18.0003 8.509 17.9422 8.56705Z" fill="#111314"/>
</svg>
