<svg width="20" height="20" viewBox="0 0 20 20" fill="none" xmlns="http://www.w3.org/2000/svg">
<path d="M18.1255 15.6249C18.1255 15.7906 18.0596 15.9496 17.9424 16.0668C17.8252 16.184 17.6663 16.2499 17.5005 16.2499C17.3347 16.2499 17.1758 16.184 17.0586 16.0668C16.9413 15.9496 16.8755 15.7906 16.8755 15.6249C16.8734 13.8021 16.1484 12.0546 14.8596 10.7658C13.5707 9.47692 11.8232 8.75193 10.0005 8.74986H4.00909L6.69268 11.4327C6.80996 11.5499 6.87584 11.709 6.87584 11.8749C6.87584 12.0407 6.80996 12.1998 6.69268 12.317C6.5754 12.4343 6.41634 12.5002 6.25049 12.5002C6.08464 12.5002 5.92558 12.4343 5.8083 12.317L2.0583 8.56705C2.00019 8.509 1.95409 8.44007 1.92264 8.3642C1.89119 8.28832 1.875 8.20699 1.875 8.12486C1.875 8.04272 1.89119 7.9614 1.92264 7.88552C1.95409 7.80965 2.00019 7.74072 2.0583 7.68267L5.8083 3.93267C5.92558 3.8154 6.08464 3.74951 6.25049 3.74951C6.41634 3.74951 6.5754 3.8154 6.69268 3.93267C6.80996 4.04995 6.87584 4.20901 6.87584 4.37486C6.87584 4.54071 6.80996 4.69977 6.69268 4.81705L4.00909 7.49986H10.0005C12.1547 7.50213 14.22 8.35889 15.7432 9.88213C17.2665 11.4054 18.1232 13.4707 18.1255 15.6249Z" fill="#111314"/>
</svg>
