<svg width="66" height="66" viewBox="0 0 66 66" fill="none" xmlns="http://www.w3.org/2000/svg">
<g filter="url(#filter0_i_4238_4386)">
<rect x="1" y="1" width="64" height="64" rx="23.5102" fill="#F9FBFF"/>
<rect x="0.5" y="0.5" width="65" height="65" rx="24.0102" stroke="#E8F0FF" stroke-linecap="round" stroke-dasharray="7.84 7.84"/>
<g filter="url(#filter1_d_4238_4386)">
<g clip-path="url(#clip0_4238_4386)">
<rect x="6.87744" y="6.87744" width="52.2449" height="52.2449" rx="17.6327" fill="white"/>
<g opacity="0.6">
<line x1="11.123" y1="75.4473" x2="11.123" y2="8.18196" stroke="url(#paint0_linear_4238_4386)" stroke-width="0.979592"/>
<line x1="17.2104" y1="75.4473" x2="17.2104" y2="8.18196" stroke="url(#paint1_linear_4238_4386)" stroke-width="0.979592"/>
<line x1="23.298" y1="75.4473" x2="23.298" y2="8.18196" stroke="url(#paint2_linear_4238_4386)" stroke-width="0.979592"/>
<line x1="29.3854" y1="75.4473" x2="29.3854" y2="8.18196" stroke="url(#paint3_linear_4238_4386)" stroke-width="0.979592"/>
<line x1="35.4729" y1="75.4473" x2="35.4728" y2="8.18196" stroke="url(#paint4_linear_4238_4386)" stroke-width="0.979592"/>
<line x1="41.5603" y1="75.4473" x2="41.5602" y2="8.18196" stroke="url(#paint5_linear_4238_4386)" stroke-width="0.979592"/>
<line x1="47.6479" y1="75.4473" x2="47.6479" y2="8.18196" stroke="url(#paint6_linear_4238_4386)" stroke-width="0.979592"/>
<line x1="53.7353" y1="75.4473" x2="53.7353" y2="8.18196" stroke="url(#paint7_linear_4238_4386)" stroke-width="0.979592"/>
</g>
<g opacity="0.6">
<line y1="-0.489796" x2="67.2653" y2="-0.489796" transform="matrix(-1 -4.37114e-08 -4.37114e-08 1 66.4698 11.7739)" stroke="url(#paint8_linear_4238_4386)" stroke-width="0.979592"/>
<line y1="-0.489796" x2="67.2653" y2="-0.489796" transform="matrix(-1 -4.37114e-08 -4.37114e-08 1 66.4698 17.8613)" stroke="url(#paint9_linear_4238_4386)" stroke-width="0.979592"/>
<line y1="-0.489796" x2="67.2653" y2="-0.489796" transform="matrix(-1 -4.37114e-08 -4.37114e-08 1 66.4698 23.9487)" stroke="url(#paint10_linear_4238_4386)" stroke-width="0.979592"/>
<line y1="-0.489796" x2="67.2653" y2="-0.489796" transform="matrix(-1 -4.37114e-08 -4.37114e-08 1 66.4698 30.0361)" stroke="url(#paint11_linear_4238_4386)" stroke-width="0.979592"/>
<line y1="-0.489796" x2="67.2653" y2="-0.489796" transform="matrix(-1 -4.37114e-08 -4.37114e-08 1 66.4698 36.124)" stroke="url(#paint12_linear_4238_4386)" stroke-width="0.979592"/>
<line y1="-0.489796" x2="67.2653" y2="-0.489796" transform="matrix(-1 -4.37114e-08 -4.37114e-08 1 66.47 42.2109)" stroke="url(#paint13_linear_4238_4386)" stroke-width="0.979592"/>
<line y1="-0.489796" x2="67.2653" y2="-0.489796" transform="matrix(-1 -4.37114e-08 -4.37114e-08 1 66.47 48.2983)" stroke="url(#paint14_linear_4238_4386)" stroke-width="0.979592"/>
<line y1="-0.489796" x2="67.2653" y2="-0.489796" transform="matrix(-1 -4.37114e-08 -4.37114e-08 1 66.47 54.3862)" stroke="url(#paint15_linear_4238_4386)" stroke-width="0.979592"/>
</g>
<g filter="url(#filter2_f_4238_4386)">
<circle cx="32.9188" cy="33.0809" r="16.7347" fill="white"/>
</g>
<g filter="url(#filter3_i_4238_4386)">
<path d="M42.0294 28.052L36.3151 22.3377C36.2014 22.2238 36.0664 22.1335 35.9177 22.0719C35.7691 22.0102 35.6097 21.9785 35.4488 21.9785H25.6529C25.1116 21.9785 24.5925 22.1935 24.2098 22.5763C23.8271 22.959 23.6121 23.4781 23.6121 24.0193V41.9785C23.6121 42.5198 23.8271 43.0389 24.2098 43.4216C24.5925 43.8043 25.1116 44.0193 25.6529 44.0193H40.3468C40.888 44.0193 41.4071 43.8043 41.7898 43.4216C42.1726 43.0389 42.3876 42.5198 42.3876 41.9785V28.9173C42.3876 28.5928 42.2587 28.2816 42.0294 28.052ZM36.2651 25.754L38.6121 28.101H36.2651V25.754ZM26.061 41.5704V24.4275H33.8161V29.3255C33.8161 29.6502 33.9452 29.9617 34.1748 30.1913C34.4044 30.4209 34.7159 30.5499 35.0406 30.5499H39.9386V41.5704H26.061Z" fill="#216BC2"/>
</g>
<g clip-path="url(#clip1_4238_4386)">
<rect x="19.9399" y="36.7524" width="17.9592" height="10.1224" rx="3.26531" fill="#206AC2"/>
<path d="M23.6143 44.0391V40.1076H24.2602V44.0391H23.6143ZM23.9457 44.0391V43.4213H26.2147V44.0391H23.9457ZM23.9457 42.3542V41.7364H26.0687V42.3542H23.9457ZM23.9457 40.7254V40.1076H26.2147V40.7254H23.9457ZM28.647 44.0391L28.6526 43.9211L30.2814 40.1076H30.9048V40.2256L29.276 44.0391H28.647ZM26.8722 44.0391V40.1076H27.5181V44.0391H26.8722ZM28.6526 44.0391L27.0183 40.2256V40.1076H27.6473L29.276 43.9211V44.0391H28.6526ZM30.4049 44.0391V40.1076H31.0508V44.0391H30.4049ZM31.8743 44.0391V40.1076H32.5202V44.0391H31.8743ZM32.2056 44.0391V43.4213H34.4185V44.0391H32.2056Z" fill="white"/>
</g>
</g>
<rect x="7.36724" y="7.36724" width="51.2653" height="51.2653" rx="17.1429" stroke="#DEECFD" stroke-width="0.979592"/>
</g>
</g>
<defs>
<filter id="filter0_i_4238_4386" x="0" y="0" width="66" height="67.9592" filterUnits="userSpaceOnUse" color-interpolation-filters="sRGB">
<feFlood flood-opacity="0" result="BackgroundImageFix"/>
<feBlend mode="normal" in="SourceGraphic" in2="BackgroundImageFix" result="shape"/>
<feColorMatrix in="SourceAlpha" type="matrix" values="0 0 0 0 0 0 0 0 0 0 0 0 0 0 0 0 0 0 127 0" result="hardAlpha"/>
<feOffset dy="3.91837"/>
<feGaussianBlur stdDeviation="0.979592"/>
<feComposite in2="hardAlpha" operator="arithmetic" k2="-1" k3="1"/>
<feColorMatrix type="matrix" values="0 0 0 0 1 0 0 0 0 1 0 0 0 0 1 0 0 0 1 0"/>
<feBlend mode="normal" in2="shape" result="effect1_innerShadow_4238_4386"/>
</filter>
<filter id="filter1_d_4238_4386" x="4.2652" y="4.2652" width="57.4694" height="57.4696" filterUnits="userSpaceOnUse" color-interpolation-filters="sRGB">
<feFlood flood-opacity="0" result="BackgroundImageFix"/>
<feColorMatrix in="SourceAlpha" type="matrix" values="0 0 0 0 0 0 0 0 0 0 0 0 0 0 0 0 0 0 127 0" result="hardAlpha"/>
<feOffset/>
<feGaussianBlur stdDeviation="1.30612"/>
<feComposite in2="hardAlpha" operator="out"/>
<feColorMatrix type="matrix" values="0 0 0 0 0.885423 0 0 0 0 0.937826 0 0 0 0 1 0 0 0 1 0"/>
<feBlend mode="normal" in2="BackgroundImageFix" result="effect1_dropShadow_4238_4386"/>
<feBlend mode="normal" in="SourceGraphic" in2="effect1_dropShadow_4238_4386" result="shape"/>
</filter>
<filter id="filter2_f_4238_4386" x="14.2249" y="14.387" width="37.3878" height="37.3876" filterUnits="userSpaceOnUse" color-interpolation-filters="sRGB">
<feFlood flood-opacity="0" result="BackgroundImageFix"/>
<feBlend mode="normal" in="SourceGraphic" in2="BackgroundImageFix" result="shape"/>
<feGaussianBlur stdDeviation="0.979592" result="effect1_foregroundBlur_4238_4386"/>
</filter>
<filter id="filter3_i_4238_4386" x="19.9387" y="19.9385" width="26.1226" height="26.5579" filterUnits="userSpaceOnUse" color-interpolation-filters="sRGB">
<feFlood flood-opacity="0" result="BackgroundImageFix"/>
<feBlend mode="normal" in="SourceGraphic" in2="BackgroundImageFix" result="shape"/>
<feColorMatrix in="SourceAlpha" type="matrix" values="0 0 0 0 0 0 0 0 0 0 0 0 0 0 0 0 0 0 127 0" result="hardAlpha"/>
<feOffset dy="0.435374"/>
<feGaussianBlur stdDeviation="1.30612"/>
<feComposite in2="hardAlpha" operator="arithmetic" k2="-1" k3="1"/>
<feColorMatrix type="matrix" values="0 0 0 0 0 0 0 0 0 0 0 0 0 0 0 0 0 0 0.13 0"/>
<feBlend mode="normal" in2="shape" result="effect1_innerShadow_4238_4386"/>
</filter>
<linearGradient id="paint0_linear_4238_4386" x1="12.1128" y1="8.18196" x2="12.1128" y2="75.4473" gradientUnits="userSpaceOnUse">
<stop stop-color="white"/>
<stop offset="1" stop-color="#D3E7FF"/>
</linearGradient>
<linearGradient id="paint1_linear_4238_4386" x1="18.2002" y1="8.18196" x2="18.2002" y2="75.4473" gradientUnits="userSpaceOnUse">
<stop stop-color="white"/>
<stop offset="1" stop-color="#D3E7FF"/>
</linearGradient>
<linearGradient id="paint2_linear_4238_4386" x1="24.2878" y1="8.18196" x2="24.2878" y2="75.4473" gradientUnits="userSpaceOnUse">
<stop stop-color="white"/>
<stop offset="1" stop-color="#D3E7FF"/>
</linearGradient>
<linearGradient id="paint3_linear_4238_4386" x1="30.3752" y1="8.18196" x2="30.3752" y2="75.4473" gradientUnits="userSpaceOnUse">
<stop stop-color="white"/>
<stop offset="1" stop-color="#D3E7FF"/>
</linearGradient>
<linearGradient id="paint4_linear_4238_4386" x1="36.4626" y1="8.18196" x2="36.4626" y2="75.4473" gradientUnits="userSpaceOnUse">
<stop stop-color="white"/>
<stop offset="1" stop-color="#D3E7FF"/>
</linearGradient>
<linearGradient id="paint5_linear_4238_4386" x1="42.55" y1="8.18196" x2="42.55" y2="75.4473" gradientUnits="userSpaceOnUse">
<stop stop-color="white"/>
<stop offset="1" stop-color="#D3E7FF"/>
</linearGradient>
<linearGradient id="paint6_linear_4238_4386" x1="48.6377" y1="8.18196" x2="48.6377" y2="75.4473" gradientUnits="userSpaceOnUse">
<stop stop-color="white"/>
<stop offset="1" stop-color="#D3E7FF"/>
</linearGradient>
<linearGradient id="paint7_linear_4238_4386" x1="54.7251" y1="8.18196" x2="54.7251" y2="75.4473" gradientUnits="userSpaceOnUse">
<stop stop-color="white"/>
<stop offset="1" stop-color="#D3E7FF"/>
</linearGradient>
<linearGradient id="paint8_linear_4238_4386" x1="67.2653" y1="0.5" x2="0" y2="0.5" gradientUnits="userSpaceOnUse">
<stop stop-color="white"/>
<stop offset="1" stop-color="#D3E7FF"/>
</linearGradient>
<linearGradient id="paint9_linear_4238_4386" x1="67.2653" y1="0.5" x2="0" y2="0.5" gradientUnits="userSpaceOnUse">
<stop stop-color="white"/>
<stop offset="1" stop-color="#D3E7FF"/>
</linearGradient>
<linearGradient id="paint10_linear_4238_4386" x1="67.2653" y1="0.5" x2="0" y2="0.5" gradientUnits="userSpaceOnUse">
<stop stop-color="white"/>
<stop offset="1" stop-color="#D3E7FF"/>
</linearGradient>
<linearGradient id="paint11_linear_4238_4386" x1="67.2653" y1="0.5" x2="0" y2="0.5" gradientUnits="userSpaceOnUse">
<stop stop-color="white"/>
<stop offset="1" stop-color="#D3E7FF"/>
</linearGradient>
<linearGradient id="paint12_linear_4238_4386" x1="67.2653" y1="0.5" x2="0" y2="0.5" gradientUnits="userSpaceOnUse">
<stop stop-color="white"/>
<stop offset="1" stop-color="#D3E7FF"/>
</linearGradient>
<linearGradient id="paint13_linear_4238_4386" x1="67.2653" y1="0.5" x2="0" y2="0.5" gradientUnits="userSpaceOnUse">
<stop stop-color="white"/>
<stop offset="1" stop-color="#D3E7FF"/>
</linearGradient>
<linearGradient id="paint14_linear_4238_4386" x1="67.2653" y1="0.5" x2="0" y2="0.5" gradientUnits="userSpaceOnUse">
<stop stop-color="white"/>
<stop offset="1" stop-color="#D3E7FF"/>
</linearGradient>
<linearGradient id="paint15_linear_4238_4386" x1="67.2653" y1="0.5" x2="0" y2="0.5" gradientUnits="userSpaceOnUse">
<stop stop-color="white"/>
<stop offset="1" stop-color="#D3E7FF"/>
</linearGradient>
<clipPath id="clip0_4238_4386">
<rect x="6.87744" y="6.87744" width="52.2449" height="52.2449" rx="17.6327" fill="white"/>
</clipPath>
<clipPath id="clip1_4238_4386">
<rect x="19.9399" y="36.7524" width="17.9592" height="10.1224" rx="3.26531" fill="white"/>
</clipPath>
</defs>
</svg>
