<svg width="20" height="20" viewBox="0 0 20 20" fill="none" xmlns="http://www.w3.org/2000/svg">
<path d="M16.6922 6.43281L12.3172 2.05781C12.2591 1.99979 12.1902 1.95378 12.1143 1.92241C12.0384 1.89105 11.9571 1.87494 11.875 1.875H4.375C4.04348 1.875 3.72554 2.0067 3.49112 2.24112C3.2567 2.47554 3.125 2.79348 3.125 3.125V16.875C3.125 17.2065 3.2567 17.5245 3.49112 17.7589C3.72554 17.9933 4.04348 18.125 4.375 18.125H15.625C15.9565 18.125 16.2745 17.9933 16.5089 17.7589C16.7433 17.5245 16.875 17.2065 16.875 16.875V6.875C16.8751 6.7929 16.859 6.71159 16.8276 6.63572C16.7962 6.55985 16.7502 6.4909 16.6922 6.43281ZM12.5 4.00859L14.7414 6.25H12.5V4.00859ZM15.625 16.875H4.375V3.125H11.25V6.875C11.25 7.04076 11.3158 7.19973 11.4331 7.31694C11.5503 7.43415 11.7092 7.5 11.875 7.5H15.625V16.875ZM12.3172 12.0578C12.3753 12.1159 12.4214 12.1848 12.4529 12.2607C12.4843 12.3365 12.5005 12.4179 12.5005 12.5C12.5005 12.5821 12.4843 12.6635 12.4529 12.7393C12.4214 12.8152 12.3753 12.8841 12.3172 12.9422L10.4422 14.8172C10.3841 14.8753 10.3152 14.9214 10.2393 14.9529C10.1635 14.9843 10.0821 15.0005 10 15.0005C9.91787 15.0005 9.83654 14.9843 9.76066 14.9529C9.68479 14.9214 9.61586 14.8753 9.55781 14.8172L7.68281 12.9422C7.56554 12.8249 7.49965 12.6659 7.49965 12.5C7.49965 12.3341 7.56554 12.1751 7.68281 12.0578C7.80009 11.9405 7.95915 11.8747 8.125 11.8747C8.29085 11.8747 8.44991 11.9405 8.56719 12.0578L9.375 12.8664V9.375C9.375 9.20924 9.44085 9.05027 9.55806 8.93306C9.67527 8.81585 9.83424 8.75 10 8.75C10.1658 8.75 10.3247 8.81585 10.4419 8.93306C10.5592 9.05027 10.625 9.20924 10.625 9.375V12.8664L11.4328 12.0578C11.4909 11.9997 11.5598 11.9536 11.6357 11.9221C11.7115 11.8907 11.7929 11.8745 11.875 11.8745C11.9571 11.8745 12.0385 11.8907 12.1143 11.9221C12.1902 11.9536 12.2591 11.9997 12.3172 12.0578Z" fill="#111314"/>
</svg>
