<svg width="20" height="20" viewBox="0 0 20 20" fill="none" xmlns="http://www.w3.org/2000/svg">
<path d="M3.75059 5C3.75059 4.83424 3.81644 4.67527 3.93365 4.55806C4.05086 4.44085 4.20983 4.375 4.37559 4.375H5.62559V3.125C5.62559 2.95924 5.69144 2.80027 5.80865 2.68306C5.92586 2.56585 6.08483 2.5 6.25059 2.5C6.41635 2.5 6.57532 2.56585 6.69253 2.68306C6.80974 2.80027 6.87559 2.95924 6.87559 3.125V4.375H8.12559C8.29135 4.375 8.45032 4.44085 8.56753 4.55806C8.68474 4.67527 8.75059 4.83424 8.75059 5C8.75059 5.16576 8.68474 5.32473 8.56753 5.44194C8.45032 5.55915 8.29135 5.625 8.12559 5.625H6.87559V6.875C6.87559 7.04076 6.80974 7.19973 6.69253 7.31694C6.57532 7.43415 6.41635 7.5 6.25059 7.5C6.08483 7.5 5.92586 7.43415 5.80865 7.31694C5.69144 7.19973 5.62559 7.04076 5.62559 6.875V5.625H4.37559C4.20983 5.625 4.05086 5.55915 3.93365 5.44194C3.81644 5.32473 3.75059 5.16576 3.75059 5ZM14.3756 15H13.7506V14.375C13.7506 14.2092 13.6847 14.0503 13.5675 13.9331C13.4503 13.8158 13.2914 13.75 13.1256 13.75C12.9598 13.75 12.8009 13.8158 12.6837 13.9331C12.5664 14.0503 12.5006 14.2092 12.5006 14.375V15H11.8756C11.7098 15 11.5509 15.0658 11.4337 15.1831C11.3164 15.3003 11.2506 15.4592 11.2506 15.625C11.2506 15.7908 11.3164 15.9497 11.4337 16.0669C11.5509 16.1842 11.7098 16.25 11.8756 16.25H12.5006V16.875C12.5006 17.0408 12.5664 17.1997 12.6837 17.3169C12.8009 17.4342 12.9598 17.5 13.1256 17.5C13.2914 17.5 13.4503 17.4342 13.5675 17.3169C13.6847 17.1997 13.7506 17.0408 13.7506 16.875V16.25H14.3756C14.5414 16.25 14.7003 16.1842 14.8175 16.0669C14.9347 15.9497 15.0006 15.7908 15.0006 15.625C15.0006 15.4592 14.9347 15.3003 14.8175 15.1831C14.7003 15.0658 14.5414 15 14.3756 15ZM18.7506 11.25H17.5006V10C17.5006 9.83424 17.4347 9.67527 17.3175 9.55806C17.2003 9.44085 17.0414 9.375 16.8756 9.375C16.7098 9.375 16.5509 9.44085 16.4337 9.55806C16.3164 9.67527 16.2506 9.83424 16.2506 10V11.25H15.0006C14.8348 11.25 14.6759 11.3158 14.5587 11.4331C14.4414 11.5503 14.3756 11.7092 14.3756 11.875C14.3756 12.0408 14.4414 12.1997 14.5587 12.3169C14.6759 12.4342 14.8348 12.5 15.0006 12.5H16.2506V13.75C16.2506 13.9158 16.3164 14.0747 16.4337 14.1919C16.5509 14.3092 16.7098 14.375 16.8756 14.375C17.0414 14.375 17.2003 14.3092 17.3175 14.1919C17.4347 14.0747 17.5006 13.9158 17.5006 13.75V12.5H18.7506C18.9164 12.5 19.0753 12.4342 19.1925 12.3169C19.3097 12.1997 19.3756 12.0408 19.3756 11.875C19.3756 11.7092 19.3097 11.5503 19.1925 11.4331C19.0753 11.3158 18.9164 11.25 18.7506 11.25ZM17.1342 6.25L6.25059 17.1336C6.0162 17.3678 5.69838 17.4994 5.367 17.4994C5.03562 17.4994 4.7178 17.3678 4.48341 17.1336L2.86622 15.518C2.75011 15.4019 2.65801 15.2641 2.59518 15.1124C2.53234 14.9607 2.5 14.7982 2.5 14.634C2.5 14.4698 2.53234 14.3072 2.59518 14.1556C2.65801 14.0039 2.75011 13.8661 2.86622 13.75L13.7506 2.86641C13.8667 2.7503 14.0045 2.6582 14.1562 2.59537C14.3078 2.53253 14.4704 2.50019 14.6346 2.50019C14.7988 2.50019 14.9613 2.53253 15.113 2.59537C15.2647 2.6582 15.4025 2.7503 15.5186 2.86641L17.1342 4.48203C17.2503 4.59811 17.3424 4.73592 17.4052 4.8876C17.4681 5.03927 17.5004 5.20184 17.5004 5.36602C17.5004 5.53019 17.4681 5.69276 17.4052 5.84444C17.3424 5.99611 17.2503 6.13392 17.1342 6.25ZM12.8662 8.75L11.2506 7.13359L3.75059 14.6336L5.36622 16.25L12.8662 8.75ZM16.2506 5.36641L14.6342 3.75L12.1342 6.25L13.7506 7.86641L16.2506 5.36641Z" fill="#111314"/>
</svg>
