
<svg width="85" height="16" viewBox="0 0 85 16" fill="none" xmlns="http://www.w3.org/2000/svg">
<path d="M6.04712 0.841797C7.1844 -0.280621 9.02793 -0.280507 10.1653 0.841797L15.3586 5.9668C16.496 7.08928 16.496 8.90974 15.3586 10.0322L10.1653 15.1582C9.02794 16.2807 7.18349 16.2807 6.04614 15.1582L0.852783 10.0322C-0.284104 8.90978 -0.28422 7.09015 0.852783 5.96777L6.04712 0.841797ZM7.95239 3.79102C7.33854 3.79102 6.77548 3.90474 6.26392 4.13281C5.75245 4.3609 5.30896 4.67729 4.93384 5.08105C4.56241 5.48503 4.27424 5.95322 4.06958 6.48438C3.86493 7.01926 3.76196 7.59149 3.76196 8.20117H4.55786C4.55786 7.69996 4.64002 7.2306 4.80298 6.79297C4.96595 6.35533 5.19692 5.96963 5.49634 5.63672C5.79562 5.30401 6.15183 5.0444 6.5647 4.85742C6.9816 4.67039 7.44453 4.57617 7.95239 4.57617C8.46018 4.5762 8.93577 4.67042 9.37915 4.85742C9.82244 5.04815 10.2107 5.3098 10.5442 5.64258C10.8815 5.97549 11.1457 6.36119 11.3352 6.79883C11.5246 7.23633 11.6194 7.70387 11.6194 8.20117C11.6194 8.69864 11.5247 9.16475 11.3352 9.59863C11.1457 10.0362 10.8814 10.4211 10.5442 10.7539C10.2107 11.0867 9.82252 11.3472 9.37915 11.5342C8.9358 11.7249 8.46015 11.8203 7.95239 11.8203C7.67951 11.8203 7.40071 11.7861 7.11646 11.7188C6.83603 11.6514 6.59879 11.5474 6.40552 11.4053C6.21615 11.2632 6.12147 11.0797 6.12134 10.8555C6.12134 10.6797 6.18267 10.5201 6.30396 10.3779C6.42513 10.2361 6.57639 10.1651 6.75806 10.165H9.99927L10.0959 9.53125H9.44751C9.6787 9.38163 9.86283 9.17378 9.99927 8.9082C10.1394 8.64269 10.2092 8.34893 10.2092 8.02734C10.2092 7.61978 10.1071 7.24556 9.90259 6.90527C9.70171 6.56862 9.43022 6.29867 9.08911 6.09668C8.74812 5.89855 8.36912 5.79984 7.95239 5.7998C7.53565 5.7998 7.1546 5.89859 6.80981 6.09668C6.46871 6.29867 6.19514 6.56862 5.99048 6.90527C5.78975 7.24557 5.6897 7.61977 5.6897 8.02734C5.68972 8.35628 5.75959 8.646 5.89966 8.89648C6.04366 9.14707 6.23514 9.34957 6.47388 9.50293C6.25806 9.52165 6.06312 9.60009 5.88892 9.73828C5.71457 9.87668 5.57621 10.0492 5.47388 10.2549C5.37535 10.4643 5.32544 10.6776 5.32544 10.8945C5.32548 11.1675 5.40142 11.4088 5.55298 11.6182C5.70835 11.8314 5.91334 12.0104 6.16724 12.1562C6.42492 12.3021 6.70905 12.4125 7.01978 12.4873C7.33056 12.5659 7.64161 12.6055 7.95239 12.6055C8.5663 12.6054 9.14278 12.4918 9.68091 12.2637C10.219 12.0392 10.6925 11.7242 11.1018 11.3203C11.511 10.9201 11.8316 10.4528 12.0627 9.91797C12.2977 9.38687 12.4153 8.81455 12.4153 8.20117C12.4153 7.59158 12.2997 7.01919 12.0686 6.48438C11.8374 5.95322 11.517 5.48503 11.1077 5.08105C10.6984 4.67717 10.2228 4.36096 9.68091 4.13281C9.14278 3.90466 8.5663 3.79104 7.95239 3.79102ZM7.95239 6.47852C8.25158 6.47855 8.52248 6.54944 8.76489 6.69141C9.01122 6.83727 9.20681 7.03017 9.35083 7.26953C9.49485 7.51267 9.56665 7.78262 9.56665 8.07812C9.56658 8.39213 9.49271 8.65603 9.34497 8.86914C9.20099 9.08219 9.01146 9.24101 8.77661 9.3457C8.54173 9.45413 8.28972 9.50874 8.02075 9.50879C7.7403 9.50879 7.46878 9.45091 7.20728 9.33496C6.94958 9.21902 6.73938 9.054 6.57642 8.84082C6.41353 8.62772 6.33236 8.37343 6.33228 8.07812C6.33228 7.79018 6.40415 7.52433 6.5481 7.28125C6.69212 7.03812 6.88561 6.84315 7.12817 6.69727C7.37445 6.5515 7.64931 6.47852 7.95239 6.47852Z" fill="#111314"/>
<path d="M23.1622 12.5V4.9044H24.7866V6.84466L24.3504 6.81458C24.561 6.22298 24.9119 5.75671 25.4032 5.41579C25.8946 5.07487 26.4561 4.9044 27.0878 4.9044H27.8248V6.4536H26.8321C26.4411 6.4536 26.1001 6.54385 25.8093 6.72434C25.5186 6.8948 25.2929 7.14047 25.1325 7.46134C24.9721 7.78221 24.8919 8.16324 24.8919 8.60444V12.5H23.1622ZM31.7862 12.7256C31.0141 12.7256 30.3322 12.5551 29.7406 12.2142C29.1591 11.8733 28.7028 11.402 28.3719 10.8004C28.041 10.1988 27.8756 9.49686 27.8756 8.69468C27.8756 7.90253 28.036 7.20564 28.3569 6.60401C28.6878 5.99235 29.139 5.52108 29.7106 5.19018C30.2921 4.84925 30.9589 4.67879 31.711 4.67879C32.463 4.67879 33.1148 4.85427 33.6663 5.20522C34.2278 5.54614 34.664 6.02745 34.9748 6.64913C35.2957 7.27082 35.4561 7.99779 35.4561 8.83005V9.11582L35.2305 9.34144H28.6878V7.89752H34.674L33.7565 8.24346C33.7465 7.82232 33.6462 7.46134 33.4557 7.16052C33.2752 6.84968 33.0346 6.61404 32.7337 6.4536C32.443 6.28314 32.1121 6.19791 31.7411 6.19791C31.34 6.19791 30.974 6.29317 30.6431 6.48369C30.3122 6.66418 30.0565 6.91987 29.876 7.25077C29.6955 7.57164 29.6053 7.94766 29.6053 8.37882V8.98046C29.6053 9.39157 29.7005 9.76759 29.891 10.1085C30.0916 10.4394 30.3573 10.7051 30.6882 10.9057C31.0191 11.1062 31.3851 11.2065 31.7862 11.2065C32.1672 11.2065 32.5132 11.1062 32.824 10.9057C33.1449 10.6951 33.3955 10.4143 33.576 10.0634H33.7565L35.1553 10.665C34.8545 11.3168 34.4083 11.8232 33.8167 12.1841C33.2351 12.5451 32.5583 12.7256 31.7862 12.7256ZM39.8954 12.7256C39.2135 12.7256 38.5969 12.5551 38.0454 12.2142C37.4939 11.8633 37.0577 11.387 36.7368 10.7854C36.416 10.1837 36.2555 9.49184 36.2555 8.70972C36.2555 7.91757 36.416 7.22068 36.7368 6.61905C37.0577 6.01742 37.4939 5.54614 38.0454 5.20522C38.5969 4.85427 39.2135 4.67879 39.8954 4.67879C40.4569 4.67879 40.9583 4.7941 41.3995 5.02473C41.8507 5.25535 42.2217 5.55617 42.5125 5.92718C42.8133 6.28816 43.0239 6.68423 43.1442 7.1154V10.304C43.0239 10.7252 42.8133 11.1213 42.5125 11.4923C42.2217 11.8633 41.8507 12.1641 41.3995 12.3947C40.9583 12.6153 40.4569 12.7256 39.8954 12.7256ZM40.1511 11.1463C40.5923 11.1463 40.9783 11.0461 41.3092 10.8455C41.6401 10.6349 41.9008 10.3442 42.0913 9.97315C42.2819 9.60214 42.3771 9.17599 42.3771 8.69468C42.3771 8.21338 42.2819 7.79223 42.0913 7.43126C41.9008 7.06025 41.6401 6.76946 41.3092 6.55889C40.9783 6.34832 40.5923 6.24303 40.1511 6.24303C39.7299 6.24303 39.3539 6.34832 39.023 6.55889C38.6921 6.76946 38.4364 7.06025 38.2559 7.43126C38.0755 7.79223 37.9852 8.21338 37.9852 8.69468C37.9852 9.17599 38.0755 9.60214 38.2559 9.97315C38.4364 10.3442 38.6921 10.6349 39.023 10.8455C39.3539 11.0461 39.7299 11.1463 40.1511 11.1463ZM42.4373 12.5V10.1536L42.7983 8.69468L42.332 7.25077V1.67063L44.0166 1.46006L44.0617 1.58039V12.5H42.4373ZM48.0779 12.7256C47.5565 12.7256 47.0903 12.6253 46.6791 12.4248C46.2781 12.2243 45.9622 11.9435 45.7316 11.5825C45.5009 11.2215 45.3856 10.8104 45.3856 10.3492C45.3856 9.63724 45.6313 9.0707 46.1226 8.64956C46.614 8.21839 47.3209 7.96771 48.2434 7.89752L51.1914 7.65687V9.08574L48.4991 9.31135C48.0178 9.35146 47.6718 9.45173 47.4613 9.61217C47.2507 9.7726 47.1454 9.98819 47.1454 10.2589C47.1454 10.5297 47.2657 10.7503 47.5064 10.9207C47.747 11.0912 48.0529 11.1764 48.4239 11.1764C48.8149 11.1764 49.1659 11.0812 49.4767 10.8906C49.7976 10.6901 50.0533 10.4344 50.2438 10.1236C50.4343 9.81271 50.5296 9.4768 50.5296 9.11582V7.86744C50.5296 7.38613 50.3691 6.99006 50.0483 6.67922C49.7274 6.35835 49.3063 6.19791 48.7849 6.19791C48.3437 6.19791 47.9777 6.30821 47.6869 6.52881C47.4061 6.73938 47.2256 7.0051 47.1454 7.32597H46.98L45.506 6.96499C45.6864 6.28314 46.0625 5.73165 46.634 5.3105C47.2156 4.88936 47.9376 4.67879 48.7999 4.67879C49.8728 4.67879 50.7101 4.98963 51.3117 5.61132C51.9133 6.22298 52.2142 7.09033 52.2142 8.21338V12.5H50.68V10.289L51.2967 10.3792C51.1763 10.8104 50.9608 11.2065 50.6499 11.5675C50.3391 11.9184 49.963 12.1992 49.5218 12.4098C49.0907 12.6203 48.6094 12.7256 48.0779 12.7256ZM57.2939 12.7256C56.5118 12.7256 55.825 12.5551 55.2334 12.2142C54.6417 11.8733 54.1805 11.402 53.8496 10.8004C53.5187 10.1988 53.3533 9.49686 53.3533 8.69468C53.3533 7.90253 53.5187 7.20564 53.8496 6.60401C54.1805 5.99235 54.6417 5.52108 55.2334 5.19018C55.825 4.84925 56.5118 4.67879 57.2939 4.67879C57.8956 4.67879 58.432 4.77906 58.9033 4.97961C59.3846 5.18015 59.7907 5.47595 60.1216 5.86701C60.4525 6.25807 60.7032 6.73938 60.8736 7.31093L59.4297 7.71703H59.2492C59.1089 7.26581 58.8582 6.90984 58.4972 6.64913C58.1362 6.3784 57.7351 6.24303 57.2939 6.24303C56.8427 6.24303 56.4517 6.34331 56.1208 6.54385C55.7899 6.74439 55.5342 7.03017 55.3537 7.40117C55.1732 7.76215 55.0829 8.19332 55.0829 8.69468C55.0829 9.18601 55.1732 9.61718 55.3537 9.98819C55.5342 10.3592 55.7899 10.65 56.1208 10.8606C56.4517 11.0611 56.8427 11.1614 57.2939 11.1614C57.6148 11.1614 57.9056 11.1012 58.1663 10.9809C58.437 10.8606 58.6727 10.6901 58.8732 10.4695C59.0738 10.2489 59.2242 9.98318 59.3244 9.67233H59.5049L60.9489 10.0784C60.7684 10.66 60.5077 11.1513 60.1667 11.5524C59.8258 11.9435 59.4147 12.2393 58.9334 12.4398C58.4621 12.6304 57.9156 12.7256 57.2939 12.7256ZM64.8999 12.5C64.1579 12.5 63.5663 12.2694 63.1251 11.8081C62.6839 11.3368 62.4633 10.7051 62.4633 9.91298V2.93406H64.193V9.7325C64.193 10.1336 64.2932 10.4344 64.4938 10.6349C64.7043 10.8355 65.0052 10.9358 65.3962 10.9358H66.1783L66.2535 11.1012V12.5H64.8999ZM61.1698 6.4536V4.9044H66.2535V6.4536H61.1698ZM70.763 12.7256C69.9909 12.7256 69.309 12.5551 68.7174 12.2142C68.1358 11.8733 67.6796 11.402 67.3487 10.8004C67.0178 10.1988 66.8524 9.49686 66.8524 8.69468C66.8524 7.90253 67.0128 7.20564 67.3337 6.60401C67.6646 5.99235 68.1158 5.52108 68.6873 5.19018C69.2689 4.84925 69.9357 4.67879 70.6878 4.67879C71.4398 4.67879 72.0916 4.85427 72.6431 5.20522C73.2046 5.54614 73.6408 6.02745 73.9516 6.64913C74.2725 7.27082 74.4329 7.99779 74.4329 8.83005V9.11582L74.2073 9.34144H67.6646V7.89752H73.6508L72.7333 8.24346C72.7233 7.82232 72.623 7.46134 72.4325 7.16052C72.252 6.84968 72.0113 6.61404 71.7105 6.4536C71.4197 6.28314 71.0888 6.19791 70.7178 6.19791C70.3168 6.19791 69.9508 6.29317 69.6199 6.48369C69.289 6.66418 69.0333 6.91987 68.8528 7.25077C68.6723 7.57164 68.582 7.94766 68.582 8.37882V8.98046C68.582 9.39157 68.6773 9.76759 68.8678 10.1085C69.0684 10.4394 69.3341 10.7051 69.665 10.9057C69.9959 11.1062 70.3619 11.2065 70.763 11.2065C71.144 11.2065 71.4899 11.1062 71.8008 10.9057C72.1216 10.6951 72.3723 10.4143 72.5528 10.0634H72.7333L74.1321 10.665C73.8313 11.3168 73.3851 11.8232 72.7935 12.1841C72.2119 12.5451 71.5351 12.7256 70.763 12.7256ZM78.8722 12.7256C78.1903 12.7256 77.5737 12.5551 77.0222 12.2142C76.4707 11.8633 76.0345 11.387 75.7136 10.7854C75.3927 10.1837 75.2323 9.49184 75.2323 8.70972C75.2323 7.91757 75.3927 7.22068 75.7136 6.61905C76.0345 6.01742 76.4707 5.54614 77.0222 5.20522C77.5737 4.85427 78.1903 4.67879 78.8722 4.67879C79.4337 4.67879 79.9351 4.7941 80.3763 5.02473C80.8275 5.25535 81.1985 5.55617 81.4893 5.92718C81.7901 6.28816 82.0007 6.68423 82.121 7.1154V10.304C82.0007 10.7252 81.7901 11.1213 81.4893 11.4923C81.1985 11.8633 80.8275 12.1641 80.3763 12.3947C79.9351 12.6153 79.4337 12.7256 78.8722 12.7256ZM79.1279 11.1463C79.5691 11.1463 79.9551 11.0461 80.286 10.8455C80.6169 10.6349 80.8776 10.3442 81.0681 9.97315C81.2587 9.60214 81.3539 9.17599 81.3539 8.69468C81.3539 8.21338 81.2587 7.79223 81.0681 7.43126C80.8776 7.06025 80.6169 6.76946 80.286 6.55889C79.9551 6.34832 79.5691 6.24303 79.1279 6.24303C78.7067 6.24303 78.3307 6.34832 77.9998 6.55889C77.6689 6.76946 77.4132 7.06025 77.2327 7.43126C77.0522 7.79223 76.962 8.21338 76.962 8.69468C76.962 9.17599 77.0522 9.60214 77.2327 9.97315C77.4132 10.3442 77.6689 10.6349 77.9998 10.8455C78.3307 11.0461 78.7067 11.1463 79.1279 11.1463ZM81.4141 12.5V10.1536L81.7751 8.69468L81.3088 7.25077V1.67063L82.9934 1.46006L83.0385 1.58039V12.5H81.4141Z" fill="#111314"/>
</svg>
