<svg width="18" height="18" viewBox="0 0 18 18" fill="none" xmlns="http://www.w3.org/2000/svg">
<path d="M16.3953 6.78281C16.1008 6.475 15.7961 6.15781 15.6812 5.87891C15.575 5.62344 15.5687 5.2 15.5625 4.78984C15.5508 4.02734 15.5383 3.16328 14.9375 2.5625C14.3367 1.96172 13.4727 1.94922 12.7102 1.9375C12.3 1.93125 11.8766 1.925 11.6211 1.81875C11.343 1.70391 11.025 1.39922 10.7172 1.10469C10.1781 0.586719 9.56563 0 8.75 0C7.93437 0 7.32266 0.586719 6.78281 1.10469C6.475 1.39922 6.15781 1.70391 5.87891 1.81875C5.625 1.925 5.2 1.93125 4.78984 1.9375C4.02734 1.94922 3.16328 1.96172 2.5625 2.5625C1.96172 3.16328 1.95312 4.02734 1.9375 4.78984C1.93125 5.2 1.925 5.62344 1.81875 5.87891C1.70391 6.15703 1.39922 6.475 1.10469 6.78281C0.586719 7.32188 0 7.93437 0 8.75C0 9.56563 0.586719 10.1773 1.10469 10.7172C1.39922 11.025 1.70391 11.3422 1.81875 11.6211C1.925 11.8766 1.93125 12.3 1.9375 12.7102C1.94922 13.4727 1.96172 14.3367 2.5625 14.9375C3.16328 15.5383 4.02734 15.5508 4.78984 15.5625C5.2 15.5687 5.62344 15.575 5.87891 15.6812C6.15703 15.7961 6.475 16.1008 6.78281 16.3953C7.32188 16.9133 7.93437 17.5 8.75 17.5C9.56563 17.5 10.1773 16.9133 10.7172 16.3953C11.025 16.1008 11.3422 15.7961 11.6211 15.6812C11.8766 15.575 12.3 15.5687 12.7102 15.5625C13.4727 15.5508 14.3367 15.5383 14.9375 14.9375C15.5383 14.3367 15.5508 13.4727 15.5625 12.7102C15.5687 12.3 15.575 11.8766 15.6812 11.6211C15.7961 11.343 16.1008 11.025 16.3953 10.7172C16.9133 10.1781 17.5 9.56563 17.5 8.75C17.5 7.93437 16.9133 7.32266 16.3953 6.78281ZM12.3172 7.31719L7.94219 11.6922C7.88414 11.7503 7.81521 11.7964 7.73934 11.8279C7.66346 11.8593 7.58213 11.8755 7.5 11.8755C7.41787 11.8755 7.33654 11.8593 7.26066 11.8279C7.18479 11.7964 7.11586 11.7503 7.05781 11.6922L5.18281 9.81719C5.06554 9.69991 4.99965 9.54085 4.99965 9.375C4.99965 9.20915 5.06554 9.05009 5.18281 8.93281C5.30009 8.81554 5.45915 8.74965 5.625 8.74965C5.79085 8.74965 5.94991 8.81554 6.06719 8.93281L7.5 10.3664L11.4328 6.43281C11.4909 6.37474 11.5598 6.32868 11.6357 6.29725C11.7116 6.26583 11.7929 6.24965 11.875 6.24965C11.9571 6.24965 12.0384 6.26583 12.1143 6.29725C12.1902 6.32868 12.2591 6.37474 12.3172 6.43281C12.3753 6.49088 12.4213 6.55982 12.4527 6.63569C12.4842 6.71156 12.5003 6.79288 12.5003 6.875C12.5003 6.95712 12.4842 7.03844 12.4527 7.11431C12.4213 7.19018 12.3753 7.25912 12.3172 7.31719Z" fill="#4FAC8F"/>
</svg>
