<svg width="85" height="16" viewBox="0 0 85 16" fill="none" xmlns="http://www.w3.org/2000/svg">
<path d="M6.04704 0.841797C7.18433 -0.280621 9.02785 -0.280507 10.1652 0.841797L15.3586 5.9668C16.4959 7.08928 16.4959 8.90974 15.3586 10.0322L10.1652 15.1582C9.02787 16.2807 7.18341 16.2807 6.04607 15.1582L0.852707 10.0322C-0.28418 8.90978 -0.284296 7.09015 0.852707 5.96777L6.04704 0.841797ZM7.95232 3.79102C7.33846 3.79102 6.77541 3.90474 6.26384 4.13281C5.75237 4.3609 5.30889 4.67729 4.93376 5.08105C4.56234 5.48503 4.27417 5.95322 4.0695 6.48438C3.86486 7.01926 3.76189 7.59149 3.76189 8.20117H4.55779C4.55779 7.69996 4.63994 7.2306 4.8029 6.79297C4.96587 6.35533 5.19685 5.96963 5.49626 5.63672C5.79554 5.30401 6.15176 5.0444 6.56462 4.85742C6.98153 4.67039 7.44445 4.57617 7.95232 4.57617C8.46011 4.5762 8.9357 4.67042 9.37907 4.85742C9.82237 5.04815 10.2107 5.3098 10.5441 5.64258C10.8814 5.97549 11.1456 6.36118 11.3351 6.79883C11.5245 7.23633 11.6193 7.70387 11.6193 8.20117C11.6193 8.69864 11.5246 9.16475 11.3351 9.59863C11.1456 10.0362 10.8814 10.4211 10.5441 10.7539C10.2106 11.0867 9.82245 11.3472 9.37907 11.5342C8.93572 11.7249 8.46007 11.8203 7.95232 11.8203C7.67943 11.8203 7.40063 11.7861 7.11638 11.7188C6.83596 11.6514 6.59871 11.5474 6.40544 11.4053C6.21608 11.2632 6.12139 11.0797 6.12126 10.8555C6.12126 10.6797 6.1826 10.5201 6.30388 10.3779C6.42506 10.2361 6.57631 10.1651 6.75798 10.165H9.99919L10.0959 9.53125H9.44743C9.67863 9.38163 9.86275 9.17378 9.99919 8.9082C10.1394 8.64269 10.2091 8.34893 10.2092 8.02734C10.2092 7.61978 10.107 7.24556 9.90251 6.90527C9.70164 6.56862 9.43014 6.29867 9.08904 6.09668C8.74805 5.89855 8.36905 5.79984 7.95232 5.7998C7.53557 5.7998 7.15453 5.89859 6.80974 6.09668C6.46863 6.29867 6.19507 6.56862 5.9904 6.90527C5.78967 7.24557 5.68962 7.61977 5.68962 8.02734C5.68965 8.35628 5.75951 8.646 5.89958 8.89648C6.04359 9.14707 6.23506 9.34957 6.4738 9.50293C6.25799 9.52165 6.06304 9.60009 5.88884 9.73828C5.7145 9.87668 5.57613 10.0492 5.4738 10.2549C5.37527 10.4643 5.32536 10.6776 5.32536 10.8945C5.32541 11.1675 5.40134 11.4088 5.5529 11.6182C5.70828 11.8314 5.91326 12.0104 6.16716 12.1562C6.42484 12.3021 6.70898 12.4125 7.0197 12.4873C7.33048 12.5659 7.64153 12.6055 7.95232 12.6055C8.56623 12.6054 9.1427 12.4918 9.68083 12.2637C10.2189 12.0392 10.6925 11.7242 11.1017 11.3203C11.5109 10.9201 11.8315 10.4528 12.0627 9.91797C12.2976 9.38687 12.4152 8.81455 12.4152 8.20117C12.4152 7.59158 12.2996 7.01918 12.0685 6.48438C11.8373 5.95322 11.5169 5.48503 11.1076 5.08105C10.6983 4.67717 10.2227 4.36096 9.68083 4.13281C9.1427 3.90466 8.56623 3.79104 7.95232 3.79102ZM7.95232 6.47852C8.2515 6.47855 8.5224 6.54944 8.76482 6.69141C9.01114 6.83727 9.20674 7.03017 9.35075 7.26953C9.49478 7.51267 9.56657 7.78262 9.56657 8.07812C9.5665 8.39213 9.49263 8.65603 9.34489 8.86914C9.20091 9.08219 9.01138 9.24101 8.77654 9.3457C8.54165 9.45413 8.28964 9.50874 8.02068 9.50879C7.74022 9.50879 7.4687 9.45091 7.2072 9.33496C6.9495 9.21902 6.73931 9.054 6.57634 8.84082C6.41345 8.62772 6.33228 8.37343 6.3322 8.07812C6.3322 7.79018 6.40407 7.52434 6.54802 7.28125C6.69204 7.03811 6.88553 6.84315 7.1281 6.69727C7.37437 6.5515 7.64924 6.47852 7.95232 6.47852Z" fill="#111314"/>
<path d="M23.1621 12.5V4.9044H24.7865V6.84466L24.3504 6.81458C24.5609 6.22298 24.9119 5.75671 25.4032 5.41579C25.8945 5.07487 26.4561 4.9044 27.0878 4.9044H27.8248V6.4536H26.8321C26.441 6.4536 26.1001 6.54385 25.8093 6.72434C25.5185 6.8948 25.2929 7.14047 25.1325 7.46134C24.972 7.78221 24.8918 8.16324 24.8918 8.60444V12.5H23.1621ZM31.7861 12.7256C31.0141 12.7256 30.3322 12.5551 29.7406 12.2142C29.159 11.8733 28.7028 11.402 28.3719 10.8004C28.041 10.1988 27.8755 9.49686 27.8755 8.69468C27.8755 7.90253 28.036 7.20564 28.3568 6.60401C28.6877 5.99235 29.139 5.52108 29.7105 5.19018C30.2921 4.84925 30.9589 4.67879 31.7109 4.67879C32.463 4.67879 33.1148 4.85427 33.6662 5.20522C34.2278 5.54614 34.664 6.02745 34.9748 6.64913C35.2957 7.27082 35.4561 7.99779 35.4561 8.83005V9.11582L35.2305 9.34144H28.6877V7.89752H34.674L33.7565 8.24346C33.7465 7.82232 33.6462 7.46134 33.4557 7.16052C33.2752 6.84968 33.0345 6.61404 32.7337 6.4536C32.4429 6.28314 32.112 6.19791 31.741 6.19791C31.3399 6.19791 30.9739 6.29317 30.643 6.48369C30.3122 6.66418 30.0565 6.91987 29.876 7.25077C29.6955 7.57164 29.6052 7.94766 29.6052 8.37882V8.98046C29.6052 9.39157 29.7005 9.76759 29.891 10.1085C30.0916 10.4394 30.3573 10.7051 30.6882 10.9057C31.0191 11.1062 31.3851 11.2065 31.7861 11.2065C32.1672 11.2065 32.5131 11.1062 32.824 10.9057C33.1448 10.6951 33.3955 10.4143 33.576 10.0634H33.7565L35.1553 10.665C34.8545 11.3168 34.4083 11.8232 33.8167 12.1841C33.2351 12.5451 32.5582 12.7256 31.7861 12.7256ZM39.8954 12.7256C39.2135 12.7256 38.5968 12.5551 38.0453 12.2142C37.4939 11.8633 37.0577 11.387 36.7368 10.7854C36.4159 10.1837 36.2555 9.49184 36.2555 8.70972C36.2555 7.91757 36.4159 7.22068 36.7368 6.61905C37.0577 6.01742 37.4939 5.54614 38.0453 5.20522C38.5968 4.85427 39.2135 4.67879 39.8954 4.67879C40.4569 4.67879 40.9582 4.7941 41.3994 5.02473C41.8507 5.25535 42.2217 5.55617 42.5125 5.92718C42.8133 6.28816 43.0238 6.68423 43.1442 7.1154V10.304C43.0238 10.7252 42.8133 11.1213 42.5125 11.4923C42.2217 11.8633 41.8507 12.1641 41.3994 12.3947C40.9582 12.6153 40.4569 12.7256 39.8954 12.7256ZM40.1511 11.1463C40.5923 11.1463 40.9783 11.0461 41.3092 10.8455C41.6401 10.6349 41.9008 10.3442 42.0913 9.97315C42.2818 9.60214 42.3771 9.17599 42.3771 8.69468C42.3771 8.21338 42.2818 7.79223 42.0913 7.43126C41.9008 7.06025 41.6401 6.76946 41.3092 6.55889C40.9783 6.34832 40.5923 6.24303 40.1511 6.24303C39.7299 6.24303 39.3539 6.34832 39.023 6.55889C38.6921 6.76946 38.4364 7.06025 38.2559 7.43126C38.0754 7.79223 37.9852 8.21338 37.9852 8.69468C37.9852 9.17599 38.0754 9.60214 38.2559 9.97315C38.4364 10.3442 38.6921 10.6349 39.023 10.8455C39.3539 11.0461 39.7299 11.1463 40.1511 11.1463ZM42.4373 12.5V10.1536L42.7982 8.69468L42.332 7.25077V1.67063L44.0165 1.46006L44.0617 1.58039V12.5H42.4373ZM48.0779 12.7256C47.5565 12.7256 47.0902 12.6253 46.6791 12.4248C46.278 12.2243 45.9622 11.9435 45.7315 11.5825C45.5009 11.2215 45.3856 10.8104 45.3856 10.3492C45.3856 9.63724 45.6313 9.0707 46.1226 8.64956C46.6139 8.21839 47.3209 7.96771 48.2434 7.89752L51.1913 7.65687V9.08574L48.499 9.31135C48.0177 9.35146 47.6718 9.45173 47.4612 9.61217C47.2507 9.7726 47.1454 9.98819 47.1454 10.2589C47.1454 10.5297 47.2657 10.7503 47.5064 10.9207C47.747 11.0912 48.0528 11.1764 48.4238 11.1764C48.8149 11.1764 49.1659 11.0812 49.4767 10.8906C49.7976 10.6901 50.0533 10.4344 50.2438 10.1236C50.4343 9.81271 50.5296 9.4768 50.5296 9.11582V7.86744C50.5296 7.38613 50.3691 6.99006 50.0482 6.67922C49.7274 6.35835 49.3062 6.19791 48.7848 6.19791C48.3436 6.19791 47.9776 6.30821 47.6868 6.52881C47.4061 6.73938 47.2256 7.0051 47.1454 7.32597H46.9799L45.5059 6.96499C45.6864 6.28314 46.0624 5.73165 46.634 5.3105C47.2156 4.88936 47.9375 4.67879 48.7999 4.67879C49.8728 4.67879 50.71 4.98963 51.3117 5.61132C51.9133 6.22298 52.2141 7.09033 52.2141 8.21338V12.5H50.68V10.289L51.2966 10.3792C51.1763 10.8104 50.9607 11.2065 50.6499 11.5675C50.339 11.9184 49.963 12.1992 49.5218 12.4098C49.0907 12.6203 48.6093 12.7256 48.0779 12.7256ZM57.2939 12.7256C56.5118 12.7256 55.8249 12.5551 55.2333 12.2142C54.6417 11.8733 54.1805 11.402 53.8496 10.8004C53.5187 10.1988 53.3532 9.49686 53.3532 8.69468C53.3532 7.90253 53.5187 7.20564 53.8496 6.60401C54.1805 5.99235 54.6417 5.52108 55.2333 5.19018C55.8249 4.84925 56.5118 4.67879 57.2939 4.67879C57.8955 4.67879 58.432 4.77906 58.9033 4.97961C59.3846 5.18015 59.7907 5.47595 60.1216 5.86701C60.4525 6.25807 60.7032 6.73938 60.8736 7.31093L59.4297 7.71703H59.2492C59.1088 7.26581 58.8582 6.90984 58.4972 6.64913C58.1362 6.3784 57.7351 6.24303 57.2939 6.24303C56.8427 6.24303 56.4516 6.34331 56.1207 6.54385C55.7898 6.74439 55.5341 7.03017 55.3536 7.40117C55.1732 7.76215 55.0829 8.19332 55.0829 8.69468C55.0829 9.18601 55.1732 9.61718 55.3536 9.98819C55.5341 10.3592 55.7898 10.65 56.1207 10.8606C56.4516 11.0611 56.8427 11.1614 57.2939 11.1614C57.6148 11.1614 57.9056 11.1012 58.1663 10.9809C58.437 10.8606 58.6726 10.6901 58.8732 10.4695C59.0737 10.2489 59.2241 9.98318 59.3244 9.67233H59.5049L60.9488 10.0784C60.7683 10.66 60.5076 11.1513 60.1667 11.5524C59.8258 11.9435 59.4147 12.2393 58.9334 12.4398C58.4621 12.6304 57.9156 12.7256 57.2939 12.7256ZM64.8998 12.5C64.1578 12.5 63.5662 12.2694 63.125 11.8081C62.6838 11.3368 62.4632 10.7051 62.4632 9.91298V2.93406H64.1929V9.7325C64.1929 10.1336 64.2932 10.4344 64.4937 10.6349C64.7043 10.8355 65.0051 10.9358 65.3962 10.9358H66.1783L66.2535 11.1012V12.5H64.8998ZM61.1697 6.4536V4.9044H66.2535V6.4536H61.1697ZM70.7629 12.7256C69.9908 12.7256 69.309 12.5551 68.7174 12.2142C68.1358 11.8733 67.6796 11.402 67.3487 10.8004C67.0178 10.1988 66.8523 9.49686 66.8523 8.69468C66.8523 7.90253 67.0128 7.20564 67.3336 6.60401C67.6645 5.99235 68.1158 5.52108 68.6873 5.19018C69.2689 4.84925 69.9357 4.67879 70.6877 4.67879C71.4398 4.67879 72.0915 4.85427 72.643 5.20522C73.2046 5.54614 73.6407 6.02745 73.9516 6.64913C74.2724 7.27082 74.4329 7.99779 74.4329 8.83005V9.11582L74.2073 9.34144H67.6645V7.89752H73.6508L72.7333 8.24346C72.7232 7.82232 72.623 7.46134 72.4325 7.16052C72.252 6.84968 72.0113 6.61404 71.7105 6.4536C71.4197 6.28314 71.0888 6.19791 70.7178 6.19791C70.3167 6.19791 69.9507 6.29317 69.6198 6.48369C69.2889 6.66418 69.0332 6.91987 68.8528 7.25077C68.6723 7.57164 68.582 7.94766 68.582 8.37882V8.98046C68.582 9.39157 68.6773 9.76759 68.8678 10.1085C69.0683 10.4394 69.3341 10.7051 69.665 10.9057C69.9959 11.1062 70.3618 11.2065 70.7629 11.2065C71.144 11.2065 71.4899 11.1062 71.8007 10.9057C72.1216 10.6951 72.3723 10.4143 72.5528 10.0634H72.7333L74.1321 10.665C73.8313 11.3168 73.385 11.8232 72.7934 12.1841C72.2119 12.5451 71.535 12.7256 70.7629 12.7256ZM78.8721 12.7256C78.1903 12.7256 77.5736 12.5551 77.0221 12.2142C76.4706 11.8633 76.0345 11.387 75.7136 10.7854C75.3927 10.1837 75.2323 9.49184 75.2323 8.70972C75.2323 7.91757 75.3927 7.22068 75.7136 6.61905C76.0345 6.01742 76.4706 5.54614 77.0221 5.20522C77.5736 4.85427 78.1903 4.67879 78.8721 4.67879C79.4337 4.67879 79.935 4.7941 80.3762 5.02473C80.8275 5.25535 81.1985 5.55617 81.4892 5.92718C81.7901 6.28816 82.0006 6.68423 82.121 7.1154V10.304C82.0006 10.7252 81.7901 11.1213 81.4892 11.4923C81.1985 11.8633 80.8275 12.1641 80.3762 12.3947C79.935 12.6153 79.4337 12.7256 78.8721 12.7256ZM79.1278 11.1463C79.569 11.1463 79.9551 11.0461 80.286 10.8455C80.6169 10.6349 80.8776 10.3442 81.0681 9.97315C81.2586 9.60214 81.3539 9.17599 81.3539 8.69468C81.3539 8.21338 81.2586 7.79223 81.0681 7.43126C80.8776 7.06025 80.6169 6.76946 80.286 6.55889C79.9551 6.34832 79.569 6.24303 79.1278 6.24303C78.7067 6.24303 78.3307 6.34832 77.9998 6.55889C77.6689 6.76946 77.4132 7.06025 77.2327 7.43126C77.0522 7.79223 76.962 8.21338 76.962 8.69468C76.962 9.17599 77.0522 9.60214 77.2327 9.97315C77.4132 10.3442 77.6689 10.6349 77.9998 10.8455C78.3307 11.0461 78.7067 11.1463 79.1278 11.1463ZM81.414 12.5V10.1536L81.775 8.69468L81.3088 7.25077V1.67063L82.9933 1.46006L83.0384 1.58039V12.5H81.414Z" fill="#111314"/>
</svg>
