<svg width="105" height="16" viewBox="0 0 105 16" fill="none" xmlns="http://www.w3.org/2000/svg">
<path d="M6.04688 0.841797C7.18416 -0.280621 9.02768 -0.280507 10.165 0.841797L15.3584 5.9668C16.4957 7.08928 16.4957 8.90974 15.3584 10.0322L10.165 15.1582C9.0277 16.2807 7.18324 16.2807 6.0459 15.1582L0.852539 10.0322C-0.284348 8.90978 -0.284464 7.09015 0.852539 5.96777L6.04688 0.841797ZM7.95215 3.79102C7.33829 3.79102 6.77524 3.90474 6.26367 4.13281C5.7522 4.3609 5.30872 4.67729 4.93359 5.08105C4.56217 5.48503 4.274 5.95322 4.06934 6.48438C3.86469 7.01926 3.76172 7.59149 3.76172 8.20117H4.55762C4.55762 7.69996 4.63977 7.2306 4.80273 6.79297C4.96571 6.35533 5.19668 5.96963 5.49609 5.63672C5.79537 5.30401 6.15159 5.0444 6.56445 4.85742C6.98136 4.67039 7.44428 4.57617 7.95215 4.57617C8.45994 4.5762 8.93553 4.67042 9.37891 4.85742C9.8222 5.04815 10.2105 5.3098 10.5439 5.64258C10.8813 5.97549 11.1455 6.36119 11.335 6.79883C11.5243 7.23633 11.6191 7.70387 11.6191 8.20117C11.6191 8.69864 11.5245 9.16475 11.335 9.59863C11.1455 10.0362 10.8812 10.4211 10.5439 10.7539C10.2105 11.0867 9.82228 11.3472 9.37891 11.5342C8.93555 11.7249 8.45991 11.8203 7.95215 11.8203C7.67926 11.8203 7.40047 11.7861 7.11621 11.7188C6.83579 11.6514 6.59854 11.5474 6.40527 11.4053C6.21591 11.2632 6.12122 11.0797 6.12109 10.8555C6.12109 10.6797 6.18243 10.5201 6.30371 10.3779C6.42489 10.2361 6.57614 10.1651 6.75781 10.165H9.99902L10.0957 9.53125H9.44727C9.67846 9.38163 9.86258 9.17378 9.99902 8.9082C10.1392 8.64269 10.209 8.34893 10.209 8.02734C10.209 7.61978 10.1069 7.24556 9.90234 6.90527C9.70147 6.56862 9.42997 6.29867 9.08887 6.09668C8.74788 5.89855 8.36888 5.79984 7.95215 5.7998C7.53541 5.7998 7.15436 5.89859 6.80957 6.09668C6.46847 6.29867 6.1949 6.56862 5.99023 6.90527C5.7895 7.24557 5.68945 7.61977 5.68945 8.02734C5.68948 8.35628 5.75934 8.646 5.89941 8.89648C6.04342 9.14707 6.2349 9.34957 6.47363 9.50293C6.25782 9.52165 6.06287 9.60009 5.88867 9.73828C5.71433 9.87668 5.57596 10.0492 5.47363 10.2549C5.3751 10.4643 5.3252 10.6776 5.3252 10.8945C5.32524 11.1675 5.40118 11.4088 5.55273 11.6182C5.70811 11.8314 5.9131 12.0104 6.16699 12.1562C6.42467 12.3021 6.70881 12.4125 7.01953 12.4873C7.33032 12.5659 7.64136 12.6055 7.95215 12.6055C8.56606 12.6054 9.14254 12.4918 9.68066 12.2637C10.2187 12.0392 10.6923 11.7242 11.1016 11.3203C11.5108 10.9201 11.8314 10.4528 12.0625 9.91797C12.2974 9.38687 12.415 8.81455 12.415 8.20117C12.415 7.59158 12.2995 7.01919 12.0684 6.48438C11.8372 5.95322 11.5167 5.48503 11.1074 5.08105C10.6982 4.67717 10.2225 4.36096 9.68066 4.13281C9.14254 3.90466 8.56606 3.79104 7.95215 3.79102ZM7.95215 6.47852C8.25133 6.47855 8.52223 6.54944 8.76465 6.69141C9.01097 6.83727 9.20657 7.03017 9.35059 7.26953C9.49461 7.51267 9.56641 7.78262 9.56641 8.07812C9.56633 8.39213 9.49247 8.65603 9.34473 8.86914C9.20074 9.08219 9.01122 9.24101 8.77637 9.3457C8.54148 9.45413 8.28947 9.50874 8.02051 9.50879C7.74006 9.50879 7.46853 9.45091 7.20703 9.33496C6.94933 9.21902 6.73914 9.054 6.57617 8.84082C6.41328 8.62772 6.33212 8.37343 6.33203 8.07812C6.33203 7.79018 6.4039 7.52433 6.54785 7.28125C6.69187 7.03812 6.88537 6.84315 7.12793 6.69727C7.37421 6.5515 7.64907 6.47852 7.95215 6.47852Z" fill="white"/>
<path d="M24.9071 12.5L22.3953 5.02473V4.9044H24.125L26.321 11.9585L26.5917 12.5H24.9071ZM24.9071 12.5L25.208 11.9585L27.449 4.9044H29.1637L28.9682 5.02473L26.5917 12.5H24.9071ZM30.021 12.5L27.6446 5.02473L27.449 4.9044H29.1637L31.4048 11.9585L31.7056 12.5H30.021ZM30.021 12.5L30.2917 11.9585L32.4877 4.9044H34.2174V5.02473L31.7056 12.5H30.021ZM35.1134 12.5V1.67063L36.7979 1.46006L36.8431 1.58039V6.84466L36.3016 6.81458C36.462 6.37339 36.6927 5.99737 36.9935 5.68652C37.2943 5.36565 37.6452 5.11999 38.0463 4.94953C38.4474 4.76904 38.8836 4.67879 39.3549 4.67879C39.8963 4.67879 40.3827 4.79912 40.8138 5.03977C41.255 5.2704 41.601 5.61633 41.8516 6.07758C42.1124 6.52881 42.2427 7.09534 42.2427 7.77719V12.5H40.513V8.30362C40.513 7.82232 40.4478 7.43126 40.3175 7.13044C40.1871 6.82962 39.9966 6.60903 39.7459 6.46864C39.5053 6.32826 39.2245 6.25807 38.9037 6.25807C38.6028 6.25807 38.292 6.33328 37.9711 6.48369C37.6603 6.63409 37.3946 6.88477 37.174 7.23572C36.9534 7.58668 36.8431 8.06297 36.8431 8.6646V12.5H35.1134ZM43.7706 12.5V4.9044H45.5003V12.5H43.7706ZM44.643 3.7613C44.3422 3.7613 44.0865 3.65602 43.8759 3.44545C43.6654 3.23488 43.5601 2.97417 43.5601 2.66333C43.5601 2.37254 43.6654 2.12186 43.8759 1.91129C44.0865 1.69069 44.3472 1.58039 44.658 1.58039C44.9488 1.58039 45.1995 1.69069 45.4101 1.91129C45.6307 2.12186 45.741 2.37755 45.741 2.67837C45.741 2.97918 45.6307 3.23488 45.4101 3.44545C45.1995 3.65602 44.9438 3.7613 44.643 3.7613ZM49.8349 12.7256C49.0127 12.7256 48.3108 12.5301 47.7292 12.139C47.1476 11.748 46.7616 11.2115 46.571 10.5297L48.1503 10.1386L48.3158 10.1687C48.406 10.4895 48.5965 10.7452 48.8873 10.9358C49.1881 11.1162 49.5341 11.2065 49.9251 11.2065C50.3062 11.2065 50.627 11.1263 50.8878 10.9658C51.1585 10.7954 51.2939 10.5798 51.2939 10.3191C51.2939 10.0985 51.2136 9.92301 51.0532 9.79266C50.9028 9.65228 50.6672 9.54699 50.3463 9.4768L48.9174 9.16095C48.2155 9.00051 47.679 8.73479 47.308 8.36378C46.9471 7.98275 46.7666 7.52651 46.7666 6.99507C46.7666 6.53382 46.8919 6.13273 47.1426 5.79181C47.4033 5.44086 47.7593 5.17012 48.2105 4.97961C48.6617 4.77906 49.1781 4.67879 49.7597 4.67879C50.5518 4.67879 51.2237 4.87432 51.7752 5.26538C52.3267 5.65644 52.6926 6.20292 52.8731 6.90483L51.3691 7.22068L51.2036 7.1906C51.1234 6.88979 50.9379 6.64913 50.6471 6.46864C50.3663 6.28816 50.0455 6.19791 49.6845 6.19791C49.3436 6.19791 49.0528 6.2681 48.8121 6.40848C48.5815 6.53884 48.4662 6.71932 48.4662 6.94995C48.4662 7.12041 48.5364 7.27583 48.6768 7.41621C48.8171 7.54657 49.0377 7.64183 49.3385 7.70199L50.7674 8.03289C51.5094 8.20335 52.0659 8.46406 52.437 8.81501C52.818 9.15593 53.0085 9.6222 53.0085 10.2138C53.0085 10.7252 52.8681 11.1714 52.5874 11.5524C52.3166 11.9234 51.9406 12.2142 51.4593 12.4248C50.988 12.6253 50.4466 12.7256 49.8349 12.7256ZM56.9461 12.5C56.2041 12.5 55.6125 12.2694 55.1713 11.8081C54.7301 11.3368 54.5095 10.7051 54.5095 9.91298V2.93406H56.2392V9.7325C56.2392 10.1336 56.3395 10.4344 56.54 10.6349C56.7506 10.8355 57.0514 10.9358 57.4425 10.9358H58.2246L58.2998 11.1012V12.5H56.9461ZM53.216 6.4536V4.9044H58.2998V6.4536H53.216ZM59.6586 12.5V1.67063L61.3432 1.46006L61.3883 1.58039V12.5H59.6586ZM66.5917 12.7256C65.8196 12.7256 65.1378 12.5551 64.5462 12.2142C63.9646 11.8733 63.5084 11.402 63.1775 10.8004C62.8466 10.1988 62.6811 9.49686 62.6811 8.69468C62.6811 7.90253 62.8416 7.20564 63.1624 6.60401C63.4933 5.99235 63.9446 5.52108 64.5161 5.19018C65.0977 4.84925 65.7645 4.67879 66.5165 4.67879C67.2686 4.67879 67.9203 4.85427 68.4718 5.20522C69.0334 5.54614 69.4695 6.02745 69.7804 6.64913C70.1013 7.27082 70.2617 7.99779 70.2617 8.83005V9.11582L70.0361 9.34144H63.4933V7.89752H69.4796L68.5621 8.24346C68.5521 7.82232 68.4518 7.46134 68.2613 7.16052C68.0808 6.84968 67.8401 6.61404 67.5393 6.4536C67.2485 6.28314 66.9176 6.19791 66.5466 6.19791C66.1455 6.19791 65.7795 6.29317 65.4486 6.48369C65.1177 6.66418 64.862 6.91987 64.6816 7.25077C64.5011 7.57164 64.4108 7.94766 64.4108 8.37882V8.98046C64.4108 9.39157 64.5061 9.76759 64.6966 10.1085C64.8971 10.4394 65.1629 10.7051 65.4938 10.9057C65.8247 11.1062 66.1907 11.2065 66.5917 11.2065C66.9728 11.2065 67.3187 11.1062 67.6296 10.9057C67.9504 10.6951 68.2011 10.4143 68.3816 10.0634H68.5621L69.9609 10.665C69.6601 11.3168 69.2138 11.8232 68.6222 12.1841C68.0407 12.5451 67.3638 12.7256 66.5917 12.7256ZM75.6936 12.7256C75.1321 12.7256 74.6308 12.6153 74.1896 12.3947C73.7484 12.1641 73.3774 11.8633 73.0766 11.4923C72.7858 11.1213 72.5802 10.7252 72.4599 10.304V7.1154C72.5802 6.68423 72.7858 6.28816 73.0766 5.92718C73.3774 5.55617 73.7484 5.25535 74.1896 5.02473C74.6308 4.7941 75.1321 4.67879 75.6936 4.67879C76.3855 4.67879 77.0022 4.85427 77.5437 5.20522C78.0952 5.54614 78.5313 6.01742 78.8522 6.61905C79.1831 7.22068 79.3486 7.91757 79.3486 8.70972C79.3486 9.49184 79.1831 10.1837 78.8522 10.7854C78.5313 11.387 78.0952 11.8633 77.5437 12.2142C77.0022 12.5551 76.3855 12.7256 75.6936 12.7256ZM71.5274 12.5V1.67063L73.2119 1.46006L73.257 1.58039V7.25077L72.7908 8.69468L73.1518 10.1536V12.5H71.5274ZM75.438 11.1463C75.8691 11.1463 76.2451 11.0461 76.566 10.8455C76.8969 10.6349 77.1526 10.3442 77.3331 9.97315C77.5236 9.60214 77.6189 9.17599 77.6189 8.69468C77.6189 8.21338 77.5236 7.79223 77.3331 7.43126C77.1526 7.06025 76.8969 6.76946 76.566 6.55889C76.2451 6.34832 75.8691 6.24303 75.438 6.24303C75.0068 6.24303 74.6207 6.34832 74.2798 6.55889C73.9489 6.76946 73.6882 7.06025 73.4977 7.43126C73.3172 7.79223 73.227 8.21338 73.227 8.69468C73.227 9.17599 73.3172 9.60214 73.4977 9.97315C73.6882 10.3442 73.9489 10.6349 74.2798 10.8455C74.6207 11.0461 75.0068 11.1463 75.438 11.1463ZM80.6123 12.5V1.67063L82.2969 1.46006L82.342 1.58039V12.5H80.6123ZM87.5154 12.7256C86.7533 12.7256 86.0815 12.5551 85.4999 12.2142C84.9183 11.8733 84.4621 11.402 84.1312 10.8004C83.8003 10.1887 83.6348 9.48683 83.6348 8.69468C83.6348 7.91256 83.8003 7.22068 84.1312 6.61905C84.4621 6.00739 84.9183 5.5311 85.4999 5.19018C86.0815 4.84925 86.7533 4.67879 87.5154 4.67879C88.2874 4.67879 88.9643 4.84925 89.5459 5.19018C90.1274 5.5311 90.5837 6.00739 90.9146 6.61905C91.2455 7.22068 91.4109 7.91256 91.4109 8.69468C91.4109 9.48683 91.2455 10.1887 90.9146 10.8004C90.5837 11.402 90.1274 11.8733 89.5459 12.2142C88.9643 12.5551 88.2874 12.7256 87.5154 12.7256ZM87.5154 11.1614C87.9565 11.1614 88.3376 11.0611 88.6585 10.8606C88.9793 10.66 89.23 10.3742 89.4105 10.0032C89.591 9.63222 89.6812 9.20105 89.6812 8.70972C89.6812 8.19834 89.591 7.76215 89.4105 7.40117C89.23 7.03017 88.9793 6.74439 88.6585 6.54385C88.3376 6.34331 87.9565 6.24303 87.5154 6.24303C87.0842 6.24303 86.7082 6.34331 86.3873 6.54385C86.0664 6.74439 85.8157 7.03017 85.6353 7.40117C85.4548 7.76215 85.3645 8.19332 85.3645 8.69468C85.3645 9.19604 85.4548 9.63222 85.6353 10.0032C85.8157 10.3742 86.0664 10.66 86.3873 10.8606C86.7082 11.0611 87.0842 11.1614 87.5154 11.1614ZM94.0624 12.5L91.5506 5.02473V4.9044H93.2803L95.4763 11.9585L95.747 12.5H94.0624ZM94.0624 12.5L94.3633 11.9585L96.6043 4.9044H98.319L98.1235 5.02473L95.747 12.5H94.0624ZM99.1763 12.5L96.7999 5.02473L96.6043 4.9044H98.319L100.56 11.9585L100.861 12.5H99.1763ZM99.1763 12.5L99.447 11.9585L101.643 4.9044H103.373V5.02473L100.861 12.5H99.1763Z" fill="white"/>
</svg>
